<?xml version="1.0" encoding="UTF-8" standalone="no"?>
<!-- Created with Inkscape (http://www.inkscape.org/) -->

<svg
   xmlns:dc="http://purl.org/dc/elements/1.1/"
   xmlns:cc="http://creativecommons.org/ns#"
   xmlns:rdf="http://www.w3.org/1999/02/22-rdf-syntax-ns#"
   xmlns:svg="http://www.w3.org/2000/svg"
   xmlns="http://www.w3.org/2000/svg"
   xmlns:sodipodi="http://sodipodi.sourceforge.net/DTD/sodipodi-0.dtd"
   xmlns:inkscape="http://www.inkscape.org/namespaces/inkscape"
   width="58.095348mm"
   height="61.59359mm"
   viewBox="0 0 205.84966 218.245"
   id="svg2"
   version="1.1"
   inkscape:version="0.92.1 r"
   sodipodi:docname="stumb.svg">
  <defs
     id="defs4" />
  <sodipodi:namedview
     id="base"
     pagecolor="#ffffff"
     bordercolor="#666666"
     borderopacity="1.0"
     inkscape:pageopacity="0.0"
     inkscape:pageshadow="2"
     inkscape:zoom="1.4"
     inkscape:cx="97.995625"
     inkscape:cy="121.56057"
     inkscape:document-units="px"
     inkscape:current-layer="g4228"
     showgrid="false"
     inkscape:object-nodes="true"
     inkscape:snap-nodes="false"
     inkscape:window-width="1920"
     inkscape:window-height="1009"
     inkscape:window-x="0"
     inkscape:window-y="0"
     inkscape:window-maximized="1" />
  <metadata
     id="metadata7">
    <rdf:RDF>
      <cc:Work
         rdf:about="">
        <dc:format>image/svg+xml</dc:format>
        <dc:type
           rdf:resource="http://purl.org/dc/dcmitype/StillImage" />
        <dc:title></dc:title>
      </cc:Work>
    </rdf:RDF>
  </metadata>
  <g
     inkscape:label="Layer 1"
     inkscape:groupmode="layer"
     id="layer1"
     transform="translate(-304.8584,-783.95695)">
    <g
       id="g4228"
       transform="matrix(0.7796476,0,0,0.74983501,223.66382,266.56753)"
       inkscape:export-xdpi="112"
       inkscape:export-ydpi="112">
      <path
         style="fill:#a05a2c;fill-rule:evenodd;stroke:#652b00;stroke-width:3.57682872;stroke-linecap:butt;stroke-linejoin:miter;stroke-miterlimit:4;stroke-dasharray:none;stroke-opacity:1"
         d="m 172.65766,753.77099 c 5.50667,-7.30397 4.2853,-14.4396 27.50794,-22.89312 14.27579,-17.97646 7.58707,-42.47617 18.07086,-22.09587 7.89121,-11.76545 9.30895,2.57986 14.41778,-2.26026 6.57742,15.62878 4.73141,1.74884 9.83424,14.78637 92.08177,3.63209 75.25156,22.321 85.76695,30.04374 14.73986,105.54999 13.50101,134.59551 17.95201,147.91793 8.70495,11.98959 12.97819,13.12661 17.80687,24.71015 -32.74642,-24.38253 -23.03367,11.18519 -28.61998,23.1573 -13.09972,-18.7565 -24.06163,-13.35746 -27.94358,27.99059 -9.51655,-25.56489 -29.01321,-41.61381 -35.08941,-23.99766 -17.73393,51.41434 -1.62592,-35.81544 -28.96479,10e-4 -8.04762,-19.52857 -19.27277,6.12415 -36.20008,26.6834 -11.93904,14.50068 16.219,-84.65342 -34.64519,-24.33005 19.07172,-67.78638 -15.54358,-5.74557 -8.55325,-26.32041 7.01478,-20.64694 -3.26837,-15.39457 -6.77928,-15.72814 -13.84858,-1.31573 -7.33279,1.66497 -16.74113,4.1693 6.56685,-16.35213 19.3459,-7.56979 20.78562,-26.20175 1.35907,-17.58812 10.63099,-70.10717 11.39442,-135.63285 z"
         id="path4188"
         inkscape:connector-curvature="0"
         sodipodi:nodetypes="ccccccccccscscsscscc"
         inkscape:export-xdpi="112"
         inkscape:export-ydpi="112" />
      <path
         sodipodi:nodetypes="cccccc"
         inkscape:connector-curvature="0"
         id="path4190"
         d="m 172.65766,753.77102 c 9.12503,-40.97494 142.73374,-50.48552 155.95458,-1.89062 4.85575,16.97705 -65.13957,45.41988 -128.73692,31.59742 -3.8659,15.97435 -8.06932,8.43538 -5.8858,30.87536 -5.5913,-21.04243 1.58915,-19.74235 0.33122,-34.46282 -13.29433,-10.977 -19.74279,-12.50028 -21.66308,-26.11934 z"
         style="fill:#ffebb5;fill-opacity:1;fill-rule:evenodd;stroke:#652b00;stroke-width:3.57682872;stroke-linecap:butt;stroke-linejoin:miter;stroke-miterlimit:4;stroke-dasharray:none;stroke-opacity:1"
         inkscape:export-xdpi="112"
         inkscape:export-ydpi="112" />
      <path
         style="opacity:1;fill:#000000;fill-opacity:1;stroke:none;stroke-width:0.40000001;stroke-linecap:round;stroke-linejoin:round;stroke-miterlimit:4;stroke-dasharray:none;stroke-dashoffset:0;stroke-opacity:1"
         d="m 258.43958,817.778 c 0.0323,14.36075 -9.46206,26.5212 -15.94425,26.18022 -6.48221,-0.34099 -15.67448,-11.95505 -15.7068,-26.31581 -0.0323,-14.36073 12.99449,-18.62062 19.4767,-18.27963 6.4822,0.34098 12.14202,4.05449 12.17435,18.41522 z"
         id="path4192"
         inkscape:connector-curvature="0"
         sodipodi:nodetypes="sssss"
         inkscape:export-xdpi="112"
         inkscape:export-ydpi="112" />
      <path
         style="opacity:1;fill:#000000;fill-opacity:1;stroke:none;stroke-width:0.40000001;stroke-linecap:round;stroke-linejoin:round;stroke-miterlimit:4;stroke-dasharray:none;stroke-dashoffset:0;stroke-opacity:1"
         d="m 323.84372,808.41027 c 0.0304,13.516 -8.35543,23.01088 -13.46262,22.74222 -5.10718,-0.26866 -14.24566,-9.15601 -14.27608,-22.67201 -0.0304,-13.51598 9.70656,-19.13299 14.81375,-18.86433 5.10719,0.26864 12.89453,5.27811 12.92495,18.79412 z"
         id="path4194"
         inkscape:connector-curvature="0"
         sodipodi:nodetypes="sssss"
         inkscape:export-xdpi="112"
         inkscape:export-ydpi="112" />
      <path
         style="fill:#a05a2c;fill-rule:evenodd;stroke:none;stroke-width:1px;stroke-linecap:butt;stroke-linejoin:miter;stroke-opacity:1"
         d="m 145.95374,715.17188 c 20.33971,41.09848 1.78055,47.29413 30.20284,95.22785 l 2.31754,-16.92296 c -29.65628,-33.24594 -8.01189,-41.48045 -32.52038,-78.30489 z"
         id="path4196"
         inkscape:connector-curvature="0"
         sodipodi:nodetypes="cccc"
         inkscape:export-xdpi="112"
         inkscape:export-ydpi="112" />
      <path
         style="fill:#008000;fill-rule:evenodd;stroke:#004001;stroke-width:3.57682872;stroke-linecap:round;stroke-linejoin:miter;stroke-miterlimit:4;stroke-dasharray:none;stroke-opacity:1"
         d="m 110.35313,694.78485 c 23.43006,-10.89092 53.60223,10.28833 39.27738,28.19585 -15.31965,27.97079 -23.58886,-25.94211 -39.27738,-28.19585 z"
         id="path4198"
         inkscape:connector-curvature="0"
         sodipodi:nodetypes="ccc"
         inkscape:export-xdpi="112"
         inkscape:export-ydpi="112" />
      <path
         id="path4200"
         d="m 295.86967,876.45874 c -4.98592,8.37389 -5.68138,6.32161 -8.56075,4.35232 -3.41621,-2.33646 -7.30452,-7.36668 -3.47744,-13.77538 4.66311,-7.8087 13.06834,-6.50727 15.81124,-2.50423 1.84445,2.69181 2.16577,1.953 -3.77305,11.92729 z"
         style="opacity:1;fill:#000000;fill-opacity:1;stroke:none;stroke-width:0.40000001;stroke-linecap:round;stroke-linejoin:round;stroke-miterlimit:4;stroke-dasharray:none;stroke-dashoffset:0;stroke-opacity:1"
         inkscape:connector-curvature="0"
         sodipodi:nodetypes="sssss"
         inkscape:export-xdpi="112"
         inkscape:export-ydpi="112"
         inkscape:transform-center-x="62.977075"
         inkscape:transform-center-y="55.157532" />
      <path
         sodipodi:nodetypes="cccccccsc"
         inkscape:connector-curvature="0"
         style="opacity:1;fill:#deaa87;fill-opacity:1;stroke:none;stroke-width:0.40000001;stroke-linecap:round;stroke-linejoin:round;stroke-miterlimit:4;stroke-dasharray:none;stroke-dashoffset:0;stroke-opacity:1"
         d="m 256.21779,770.27681 c 11.26342,8.44777 27.02087,-3.54474 32.80368,-7.08081 2.57995,5.36194 19.53279,0.61569 25.3071,-9.14047 3.67011,7.28573 -14.6352,14.26779 -25.71109,14.95269 -7.06863,5.67674 -25.2259,8.62346 -35.69479,9.32875 -11.11405,5.24135 -36.09281,3.73045 -45.67203,-1.56645 -6.1055,-0.7326 -22.26108,-7.96268 -23.59785,-18.27203 19.45707,22.93759 22.70021,9.47331 28.24993,16.82893 2.89698,3.83963 38.4946,4.64624 44.31505,-5.05061 z"
         id="path4202"
         inkscape:export-xdpi="112"
         inkscape:export-ydpi="112" />
      <path
         id="path4204"
         d="m 242.87138,727.82708 c -11.7134,-4.60492 -24.50863,1.28552 -29.33483,2.99919 -3.19997,-2.82974 -12.90742,2.80568 -16.78747,7.74116 -4.50054,-3.84834 6.12316,-10.61423 16.28515,-10.74332 5.695,-2.79624 22.07893,-3.95256 31.67526,-4.10459 9.51001,-2.48832 32.88862,-1.1969 42.5658,1.74173 5.76918,0.50385 21.83304,4.57771 24.6271,9.94459 -21.49315,-12.27671 -22.46789,-5.36907 -28.72104,-9.29191 -3.26416,-2.04773 -36.37824,-3.19068 -40.30997,1.71315 z"
         style="opacity:1;fill:#deaa87;fill-opacity:1;stroke:none;stroke-width:0.40000001;stroke-linecap:round;stroke-linejoin:round;stroke-miterlimit:4;stroke-dasharray:none;stroke-dashoffset:0;stroke-opacity:1"
         inkscape:connector-curvature="0"
         sodipodi:nodetypes="cccccccsc"
         inkscape:export-xdpi="112"
         inkscape:export-ydpi="112" />
      <path
         id="path4206"
         d="m 258.34494,762.29756 c -6.24905,3.60091 -45.66602,5.91456 -46.64563,2.97308 -5.20991,-0.0456 -8.41179,-4.23013 -9.38838,-6.99015 -4.96788,-1.35962 -4.50353,-9.06148 -0.19759,-13.6642 0.43141,-2.00954 11.49014,-6.37526 20.46505,-10.36304 -16.63449,14.47282 -14.80562,8.36568 -21.05131,12.53085 -0.96202,25.88232 52.38585,14.39185 56.81786,15.51346 z"
         style="opacity:1;fill:#deaa87;fill-opacity:1;stroke:none;stroke-width:0.40000001;stroke-linecap:round;stroke-linejoin:round;stroke-miterlimit:4;stroke-dasharray:none;stroke-dashoffset:0;stroke-opacity:1"
         inkscape:connector-curvature="0"
         sodipodi:nodetypes="ccccccc"
         inkscape:export-xdpi="112"
         inkscape:export-ydpi="112" />
      <path
         sodipodi:nodetypes="cccccccsc"
         inkscape:connector-curvature="0"
         style="opacity:1;fill:#deaa87;fill-opacity:1;stroke:none;stroke-width:0.40000001;stroke-linecap:round;stroke-linejoin:round;stroke-miterlimit:4;stroke-dasharray:none;stroke-dashoffset:0;stroke-opacity:1"
         d="m 265.52924,735.40918 c 7.15315,-4.87575 15.91646,0.68799 19.17768,2.27988 1.8175,-2.8993 8.56744,2.48498 11.49866,7.31251 2.56763,-3.94653 -4.87147,-10.43589 -11.43576,-10.31837 -3.91561,-2.65033 -14.58152,-3.40639 -20.78304,-3.32545 -6.34898,-2.25086 -21.31267,-0.39657 -27.29761,2.76826 -3.6765,0.64221 -13.68127,5.09386 -15.01641,10.51328 12.79268,-12.76289 14.02186,-5.89835 17.71319,-9.96165 1.92689,-2.12104 23.18148,-4.06318 26.14329,0.73154 z"
         id="path4208"
         inkscape:export-xdpi="112"
         inkscape:export-ydpi="112" />
      <path
         id="path4210"
         d="m 241.56307,754.00111 c -4.90041,4.33305 -11.91915,0.98111 -14.48902,0.093 -1.09899,2.34739 -6.60187,-1.05928 -9.21061,-4.40729 -1.56574,3.20407 4.54785,7.37543 9.42826,6.66958 3.15058,1.6211 11.16379,1.18509 15.77711,0.54084 4.92842,1.09224 15.91397,-1.7076 20.09458,-4.64643 2.68267,-0.82801 9.74502,-5.111 10.26287,-9.30477 -8.40809,10.78423 -9.92798,5.74694 -12.32064,9.14441 -1.249,1.77348 -16.91392,5.23118 -19.54255,1.91068 z"
         style="opacity:1;fill:#deaa87;fill-opacity:1;stroke:none;stroke-width:0.40000001;stroke-linecap:round;stroke-linejoin:round;stroke-miterlimit:4;stroke-dasharray:none;stroke-dashoffset:0;stroke-opacity:1"
         inkscape:connector-curvature="0"
         sodipodi:nodetypes="cccccccsc"
         inkscape:export-xdpi="112"
         inkscape:export-ydpi="112" />
      <path
         sodipodi:nodetypes="ccccccc"
         inkscape:connector-curvature="0"
         style="opacity:1;fill:#deaa87;fill-opacity:1;stroke:none;stroke-width:0.40000001;stroke-linecap:round;stroke-linejoin:round;stroke-miterlimit:4;stroke-dasharray:none;stroke-dashoffset:0;stroke-opacity:1"
         d="m 238.23291,745.62287 c 2.10868,0.69364 13.76237,0.36661 13.80984,-0.33281 1.51195,-0.1242 2.10551,-1.15867 2.16676,-1.81618 1.33543,-0.42183 0.57845,-2.18703 -1.04582,-3.154 -0.28778,-0.45381 -3.85741,-1.21876 -6.79031,-1.94208 6.0078,2.97301 4.98262,1.60519 7.13589,2.42897 2.36976,5.94506 -14.07758,4.46083 -15.27634,4.8161 z"
         id="path4212"
         inkscape:export-xdpi="112"
         inkscape:export-ydpi="112" />
      <path
         sodipodi:nodetypes="cccccccsc"
         inkscape:connector-curvature="0"
         style="opacity:1;fill:#deaa87;fill-opacity:1;stroke:none;stroke-width:0.40000001;stroke-linecap:round;stroke-linejoin:round;stroke-miterlimit:4;stroke-dasharray:none;stroke-dashoffset:0;stroke-opacity:1"
         d="m 285.25491,755.67748 c -2.43516,3.27292 -7.2764,3.02314 -9.00096,3.10688 -0.35134,1.44463 -4.25724,0.84654 -6.35431,-0.33326 -0.5204,1.98574 3.87373,2.84993 6.81006,1.45496 2.18962,0.17226 7.11318,-1.74463 9.89206,-3.05138 3.2208,-0.47622 9.65882,-4.24178 11.8436,-6.64251 1.55172,-0.99409 5.33899,-4.69757 5.0673,-6.97334 -3.7039,7.34603 -5.36275,5.06473 -6.37024,7.32492 -0.52591,1.17984 -9.78198,6.2731 -11.88752,5.11274 z"
         id="path4214"
         inkscape:export-xdpi="112"
         inkscape:export-ydpi="112" />
      <path
         style="fill:#784421;fill-rule:evenodd;stroke:none;stroke-width:1px;stroke-linecap:butt;stroke-linejoin:miter;stroke-opacity:1"
         d="m 173.13436,894.02928 c 0,0 9.00878,-11.7506 11.5477,-8.76496 7.05972,8.30186 12.09919,-22.13569 6.11135,33.84583 19.30055,-36.32707 0.0818,-106.95028 1.30612,-90.0505 7.17178,63.99872 -23.51816,48.97873 -18.96517,64.96963 z"
         id="path4216"
         inkscape:connector-curvature="0"
         sodipodi:nodetypes="ccccc"
         inkscape:export-xdpi="112"
         inkscape:export-ydpi="112" />
      <path
         sodipodi:nodetypes="ccccc"
         inkscape:connector-curvature="0"
         id="path4220"
         d="m 223.52882,929.59369 c 0,0 -4.64533,-10.34816 -6.74738,-11.79442 -5.84493,-4.02149 -5.43887,-15.38142 -8.41627,2.74245 -8.54808,-24.77363 13.40995,-25.03706 10.4498,-22.12527 0.43291,14.37553 10.15121,31.42253 4.71385,31.17724 z"
         style="fill:#784421;fill-rule:evenodd;stroke:none;stroke-width:1px;stroke-linecap:butt;stroke-linejoin:miter;stroke-opacity:1"
         inkscape:export-xdpi="112"
         inkscape:export-ydpi="112" />
      <path
         style="fill:#784421;fill-rule:evenodd;stroke:none;stroke-width:1px;stroke-linecap:butt;stroke-linejoin:miter;stroke-opacity:1"
         d="m 284.07065,929.26863 c 0,0 7.76268,5.15478 10.02537,4.72063 6.29162,-1.20722 10.34997,8.82703 5.76375,-9.03318 16.49811,14.38538 -1.20126,32.06134 0.0739,27.21954 7.05287,-17.87585 -20.04724,-18.94121 -15.86301,-22.90698 z"
         id="path4222"
         inkscape:connector-curvature="0"
         sodipodi:nodetypes="ccccc"
         inkscape:export-xdpi="112"
         inkscape:export-ydpi="112" />
      <path
         style="fill:#784421;fill-rule:evenodd;stroke:none;stroke-width:1px;stroke-linecap:butt;stroke-linejoin:miter;stroke-opacity:1"
         d="m 255.91858,842.50701 c -0.006,-0.035 7.46594,3.09022 -6.28067,18.94657 -6.46956,2.80293 -17.74463,-4.95496 -4.93444,7.71978 -24.54532,-6.43396 -26.00485,-24.24934 -25.33048,-20.07082 21.02056,26.36827 43.05127,-2.89276 36.54559,-6.59553 z"
         id="path4224"
         inkscape:connector-curvature="0"
         sodipodi:nodetypes="ccccc"
         inkscape:export-xdpi="112"
         inkscape:export-ydpi="112" />
      <path
         inkscape:export-ydpi="112"
         inkscape:export-xdpi="112"
         sodipodi:nodetypes="ccccc"
         inkscape:connector-curvature="0"
         id="path4179"
         d="m 302.85516,837.88433 c -0.0111,-0.0214 -3.83712,4.48071 12.64371,8.0522 5.72012,-0.87567 10.16415,-9.33838 6.80216,2.39471 14.24314,-12.68689 7.47189,-23.00599 8.82934,-20.46182 -3.08267,22.30914 -31.17742,14.47347 -28.27521,10.01491 z"
         style="fill:#784421;fill-rule:evenodd;stroke:none;stroke-width:1px;stroke-linecap:butt;stroke-linejoin:miter;stroke-opacity:1" />
      <path
         inkscape:export-ydpi="112"
         inkscape:export-xdpi="112"
         sodipodi:nodetypes="ccccc"
         inkscape:connector-curvature="0"
         id="path4181"
         d="m 229.43152,841.45771 c 0.002,-0.0161 -5.16136,2.23797 5.77535,7.61733 4.83715,0.47723 12.4262,-4.26543 4.06072,2.82514 17.21654,-5.715 17.08053,-13.74117 16.87374,-11.81973 -13.35658,14.09099 -31.14013,3.77273 -26.70981,1.37726 z"
         style="fill:#784421;fill-rule:evenodd;stroke:none;stroke-width:1px;stroke-linecap:butt;stroke-linejoin:miter;stroke-opacity:1" />
      <path
         style="fill:#784421;fill-rule:evenodd;stroke:none;stroke-width:1px;stroke-linecap:butt;stroke-linejoin:miter;stroke-opacity:1"
         d="m 323.33229,824.17149 c -0.006,-0.0146 4.81463,0.3536 -2.73777,9.24051 -3.83821,2.11978 -11.29757,0.21745 -2.58744,4.08779 -15.60183,0.48669 -17.59149,-7.20145 -16.91907,-5.44333 14.63198,8.81663 26.5012,-7.12972 22.24428,-7.88497 z"
         id="path4183"
         inkscape:connector-curvature="0"
         sodipodi:nodetypes="ccccc"
         inkscape:export-xdpi="112"
         inkscape:export-ydpi="112"
         inkscape:transform-center-x="3.0107929"
         inkscape:transform-center-y="-0.93536506" />
    </g>
  </g>
</svg>
