<?xml version="1.0" encoding="UTF-8" standalone="no"?>
<svg
   xmlns:dc="http://purl.org/dc/elements/1.1/"
   xmlns:cc="http://creativecommons.org/ns#"
   xmlns:rdf="http://www.w3.org/1999/02/22-rdf-syntax-ns#"
   xmlns:svg="http://www.w3.org/2000/svg"
   xmlns="http://www.w3.org/2000/svg"
   height="285.27914"
   width="400"
   version="1.1"
   id="svg3039">
  <metadata
     id="metadata3045">
    <rdf:RDF>
      <cc:Work
         rdf:about="">
        <dc:format>image/svg+xml</dc:format>
        <dc:type
           rdf:resource="http://purl.org/dc/dcmitype/StillImage" />
        <dc:title></dc:title>
      </cc:Work>
    </rdf:RDF>
  </metadata>
  <defs
     id="defs3043" />
  <path
     id="path3057"
     d="m 364.63958,284.99331 c -1.68571,-0.27374 -3.74491,-1.11309 -4.57599,-1.8652 -1.35055,-1.22222 -1.46003,-1.8853 -1.03071,-6.2422 0.46159,-4.68447 0.4131,-4.89527 -1.24258,-5.40147 -0.94761,-0.28971 -5.91141,-2.45526 -11.03068,-4.81233 -5.11926,-2.35708 -14.31736,-6.24985 -20.44022,-8.65063 -6.12286,-2.40077 -16.89264,-7.30645 -23.93287,-10.90152 -12.55795,-6.41267 -15.05105,-7.35966 -15.05105,-5.71694 0,1.2121 -8.69929,11.70785 -11.57244,13.96223 -4.52313,3.54901 -8.71897,1.84697 -7.57971,-3.07471 0.96027,-4.14841 0.70593,-14.67711 -0.43783,-18.12478 -1.24711,-3.75922 -2.59941,-4.55691 -15.03398,-8.86826 -8.67359,-3.00733 -11.78017,-3.79074 -33.38062,-8.41793 -6.40044,-1.37108 -13.35854,-2.88246 -15.46246,-3.35864 -4.98766,-1.12883 -16.17096,0.0662 -28.18234,3.01157 -9.11685,2.23558 -14.51947,4.25004 -31.01902,11.56601 -15.0765,6.68497 -16.55845,7.0326 -29.70685,6.96827 -10.03184,-0.0491 -11.97208,-0.26798 -17.616347,-1.98749 -14.621262,-4.45433 -22.025099,-9.80755 -29.669649,-21.45213 -4.441085,-6.7649 -7.362758,-14.1122 -10.755496,-27.04746 -2.520155,-9.60842 -2.576574,-10.1306 -2.632614,-24.36528 -0.03149,-8.00054 0.184151,-15.4055 0.479218,-16.45546 0.517533,-1.8416 0.337739,-1.97867 -5.091252,-3.88128 C 35.277912,134.8325 24.516351,126.38243 14.439476,112.21118 2.2635861,95.088053 -1.970001,76.764313 0.82799121,53.298123 2.6343966,38.148153 11.036686,20.188403 21.856739,8.349543 c 4.308741,-4.71445 8.063721,-7.26654 9.743253,-6.62204 1.296494,0.49751 1.354178,0.0373 -1.358884,10.84061 -4.361582,17.36763 -5.468776,23.68766 -5.468776,31.21667 0,20.55556 8.655892,32.91801 29.530433,42.17577 l 5.744671,2.54772 0.974626,-2.33131 c 2.127016,-5.08787 10.89373,-18.53854 14.828205,-22.75078 5.044646,-5.40076 9.584893,-7.61242 19.950181,-9.71822 17.660152,-3.58779 37.573442,-0.53954 49.994652,7.65299 7.78043,5.13167 17.59136,13.23772 18.5389,15.31734 0.46188,1.01371 0.58793,1.72393 0.28011,1.57828 -1.84404,-0.87257 -6.33798,-3.87302 -13.84552,-9.2442 -9.98092,-7.14073 -13.48706,-8.88617 -22.35464,-11.12869 -5.39527,-1.3644 -8.33181,-1.63943 -16.72667,-1.56656 -6.40887,0.0556 -11.53023,0.47491 -13.819114,1.13132 l -3.636609,1.04292 2.181965,1.04537 c 1.434933,0.68746 2.255665,1.67555 2.397238,2.88606 0.297816,2.54647 2.55318,3.73048 7.92783,4.16191 2.52177,0.20242 4.58503,0.69776 4.58503,1.10076 0,0.97795 -10.25805,0.19544 -12.389114,-0.94507 -1.380602,-0.73888 -1.859892,-0.61485 -3.338741,0.86401 -1.563138,1.56313 -1.643136,1.9482 -0.844355,4.06441 0.671427,1.7788 0.679857,2.54018 0.03527,3.18477 -0.644581,0.64457 -0.303577,1.12518 1.426387,2.01029 3.657759,1.87145 4.120483,3.30599 1.769203,5.48507 -1.104045,1.0232 -2.154145,1.86035 -2.333546,1.86035 -0.828231,0 -0.182427,-1.53191 1.181468,-2.80257 l 1.507666,-1.40461 -1.669495,-1.16935 c -0.918222,-0.64315 -2.414904,-1.16936 -3.325969,-1.16936 -1.904107,0 -2.137555,-1.17217 -0.57689,-2.89669 0.89969,-0.99414 0.929983,-1.59124 0.18183,-3.58335 -0.86856,-2.31271 -0.806592,-2.46704 1.905772,-4.7467 3.457252,-2.90568 3.424828,-5.02694 -0.08202,-5.36591 -1.452199,-0.14038 -2.357838,-0.627 -2.357838,-1.26693 0,-0.87485 -0.488382,-0.84905 -3.091118,0.1633 -7.160235,2.78501 -11.165741,6.77923 -17.381599,17.33262 -1.64929,2.80018 -4.240199,6.76459 -5.757574,8.8098 l -2.758862,3.71854 5.584885,1.52133 c 3.071691,0.83673 8.536357,2.17471 12.143712,2.97328 3.607349,0.79856 7.627845,1.90143 8.934435,2.45081 l 2.375607,0.99887 -1.935672,0.88195 C 85.0811,101.13566 76.8476,100.27761 63.135826,95.799733 44.00445,89.551973 31.950946,80.588343 25.646427,67.920603 c -3.499559,-7.03171 -4.512282,-11.9542 -4.498732,-21.86668 0.01236,-9.06894 1.609483,-18.04992 6.084097,-34.21313 l 1.812159,-6.5459 -4.033538,4.36393 C 14.794045,20.712023 6.5300045,37.921303 5.3450665,50.610483 l -0.4292435,4.59665 3.0501109,-1.5898 c 3.9344101,-2.05073 4.7043101,-1.32589 1.0451904,0.98401 -4.7550912,3.00175 -4.8754702,3.32454 -4.3630575,11.69921 0.6723653,10.989 2.7754596,20.02168 6.5242942,28.0215 l 1.501068,3.20321 0.930965,-2.68902 c 1.766344,-5.10196 4.490673,-8.21738 9.304416,-10.64012 3.417939,-1.72023 3.318165,-1.70821 3.318165,-0.3995 0,0.57309 -0.676096,1.25656 -1.502436,1.51883 -2.430665,0.77147 -6.46725,4.70989 -8.092574,7.8958 -3.130858,6.13698 -3.097881,6.41563 1.583627,13.382957 2.344587,3.48936 6.64228,8.799 9.550425,11.7992 l 5.287549,5.45492 0.523512,-3.43261 c 0.593698,-3.89285 3.266154,-9.98773 5.896266,-13.44718 1.809635,-2.38027 9.794638,-8.940127 10.882377,-8.940127 1.367481,0 0.428356,1.37589 -2.166539,3.174147 -7.482169,5.18515 -11.086128,11.53161 -11.284324,19.87133 l -0.131718,5.54265 4.988024,2.71627 c 9.664244,5.26271 20.093907,7.76495 35.33742,8.47799 l 9.777939,0.45738 -2.792624,2.41403 c -1.535937,1.32771 -3.936433,2.62861 -5.334425,2.89087 -2.824292,0.52984 -15.847708,-0.0554 -17.707971,-0.79575 -1.056697,-0.42054 -1.243953,0.79747 -1.695365,11.02779 -0.604281,13.6949 0.424378,22.02482 4.361268,35.31684 2.88762,9.74942 5.585715,15.58256 10.178285,22.00498 6.375019,8.91505 11.073328,12.21178 23.484739,16.47886 7.62779,2.62245 20.93639,3.60453 28.63482,2.11304 2.52582,-0.48935 11.5002,-3.79676 19.94308,-7.34981 21.8464,-9.19369 32.24563,-11.96949 48.08367,-12.83466 6.96213,-0.38032 9.04101,-0.21607 14.18277,1.12056 3.31368,0.86141 12.73442,3.03973 20.93497,4.84072 8.20055,1.801 18.83763,4.54254 23.63796,6.09233 11.6529,3.76217 31.36879,12.25099 50.91252,21.92079 8.80059,4.35433 20.5832,9.70654 26.18358,11.89378 5.60038,2.18725 11.98262,4.77815 14.18277,5.75754 2.64151,1.17587 4.80318,1.66136 6.36407,1.42932 2.78216,-0.41359 2.80473,-0.48727 0.89337,-2.91718 l -1.47043,-1.86935 1.56439,-1.66522 c 0.99037,-1.0542 1.42023,-2.21647 1.17151,-3.16759 -0.42672,-1.63179 1.12589,-3.65874 2.80253,-3.65874 1.39426,0 1.32434,1.18952 -0.1021,1.73691 -0.71861,0.27575 -0.9832,0.9355 -0.71458,1.78183 0.25694,0.80955 -0.21095,2.1544 -1.17669,3.38214 l -1.60324,2.03818 2.13599,1.73835 c 2.07548,1.68909 2.096,1.76852 0.72417,2.80368 -0.77651,0.58593 -1.67657,1.06534 -2.00014,1.06534 -0.32357,0 -0.58831,0.29249 -0.58831,0.64998 0,1.03723 8.8422,4.29195 14.19025,5.22327 9.85523,1.71622 19.42988,-0.33355 24.87356,-5.325 2.25051,-2.06356 2.44595,-4.36369 2.61127,-30.7321 0.12977,-20.6973 -7.3e-4,-23.75749 -1.17869,-27.63823 -1.50087,-4.9446 -5.56886,-12.19155 -9.96672,-17.75526 -6.34909,-8.03218 -18.73007,-15.06848 -30.72484,-17.46139 -7.00752,-1.39797 -20.8156,-5.01519 -32.17064,-8.42756 -9.56954,-2.87579 -20.23154,-8.49461 -24.81355,-13.07662 -4.72517,-4.72516 -6.50931,-8.42161 -7.58382,-15.7124 -0.43693,-2.96461 -1.42352,-8.99044 -2.19243,-13.39073 -0.7689,-4.4003 -1.74871,-10.12796 -2.17735,-12.72813 -1.31674,-7.987437 -6.24851,-23.482037 -9.58182,-30.104047 -0.78335,-1.55621 -3.76708,-5.17156 -6.63052,-8.03409 -4.08318,-4.0819 -6.60769,-5.87349 -11.70293,-8.3053 -6.44392,-3.0755 -6.51529,-3.09065 -8.7895,-1.8659 -3.90029,2.10044 -3.97124,0.88005 -0.27326,-4.70074 1.95724,-2.95378 3.55863,-5.64258 3.55863,-5.9751 0,-0.33252 -0.99627,-1.73928 -2.21393,-3.12611 -2.92476,-3.33112 -7.91034,-5.70876 -11.34921,-5.41249 -3.24445,0.27952 -4.12616,-1.19777 -1.07865,-1.80728 3.21144,-0.64229 10.06451,1.75489 14.42705,5.04652 l 2.33089,1.7587 1.48755,-4.81612 c 1.78134,-5.7673 1.84354,-8.08176 0.36933,-13.74166 -1.33048,-5.10804 -3.14692,-8.22965 -7.58645,-13.03756 -4.76601,-5.16146 -18.20623,-13.82018004 -18.20623,-11.72916 0,0.18624 1.10979,2.39548 2.46619,4.90942 1.35641,2.51394 3.03373,6.33287 3.72738,8.48653 2.50434,7.77553 0.0674,18.81941 -5.47809,24.82628 -3.21664,3.48426 -4.67223,3.50107 -2.19732,0.0254 0.87238,-1.22515 2.54455,-4.85365 3.71595,-8.06336 3.38069,-9.2633 2.67608,-17.21057 -2.20865,-24.9114 -2.53169,-3.99124 -2.6315,-4.56399 -1.06784,-6.12766004 0.94295,-0.94294 1.60186,-0.99983 3.81844,-0.32965 3.52487,1.06573004 12.8057,6.57696004 16.60313,9.85942004 8.63818,7.46676 13.0976,20.64549 10.36305,30.62545 -0.9247,3.37473 -5.37402,12.54096 -6.93216,14.2812 -0.96513,1.07794 -0.53307,1.40982 4.60905,3.54032 6.57807,2.72546 9.86012,4.96539 15.72408,10.73135 7.50219,7.37682 13.06439,21.98915 16.54007,43.451967 4.49518,27.75847 4.46952,27.6689 9.59519,33.49197 3.72127,4.2276 17.16441,10.87938 27.81898,13.76509 4.00027,1.08344 10.70981,2.92517 14.91009,4.09274 4.20029,1.16757 10.41889,2.60778 13.81912,3.20048 11.14694,1.94306 24.63805,9.76631 31.90938,18.5037 4.76848,5.7299 9.97597,14.87505 11.41314,20.0432 1.54574,5.55856 2.30276,33.12145 1.11866,40.73002 -1.49882,9.63081 -1.45907,13.60922 0.15786,15.79623 2.00306,2.70927 2.53967,9.37837 0.94985,11.80475 -1.4011,2.13835 -5.75062,3.47557 -11.09716,3.4117 -3.40102,-0.0406 -3.80349,0.12545 -4.20778,1.73624 -0.93156,3.71168 -11.45115,6.72502 -19.12613,5.47869 z m 0.51932,-3.67983 c 0,-0.80005 0.3273,-1.45464 0.72733,-1.45464 0.40002,0 0.72732,0.65459 0.72732,1.45464 0,0.96976 0.48488,1.45465 1.45464,1.45465 1.17757,0 1.45464,-0.48489 1.45464,-2.54563 0,-1.40009 0.3273,-2.54563 0.72733,-2.54563 0.40002,0 0.72732,1.18102 0.72732,2.62448 0,2.46745 0.11386,2.5959 1.90315,2.14681 1.04674,-0.26271 2.83013,-0.66306 3.9631,-0.88965 3.05877,-0.61176 4.38863,-2.41167 3.69765,-5.00464 l -0.57293,-2.14994 -8.67758,-0.4782 c -4.77267,-0.26302 -8.75801,-0.40081 -8.8563,-0.30619 -0.0983,0.0946 -0.39492,1.7496 -0.6592,3.67776 -0.40012,2.91913 -0.25569,3.67014 0.8632,4.48828 1.85481,1.35627 2.52033,1.2316 2.52033,-0.4721 z m 22.84132,-7.45504 c 0.46385,-1.63593 0.4643,-1.63598 1.35765,-0.12977 1.18728,2.00178 4.42725,1.32761 4.76266,-0.99102 0.26304,-1.81837 1.58589,-2.2127 1.58589,-0.47275 0,0.62364 0.32729,0.93162 0.72732,0.68439 0.95547,-0.59051 0.9239,-3.21929 -0.073,-6.07899 l -0.80031,-2.29578 -1.45716,1.85247 c -0.80144,1.01886 -3.71424,2.98912 -6.4729,4.37836 -2.75866,1.38924 -5.01574,2.79452 -5.01574,3.12285 0,1.07033 0.93329,1.56672 2.94568,1.56672 1.42673,0 2.10487,-0.45484 2.43991,-1.63648 z m -109.3497,-27.06511 c 2.62378,-3.10548 5.49463,-6.03387 6.37968,-6.50753 1.47903,-0.79154 0.98813,-1.13788 -6.06953,-4.28204 -4.22329,-1.88146 -7.94626,-3.42083 -8.27327,-3.42083 -0.32701,0 -0.12851,1.7183 0.44109,3.81844 1.02102,3.76447 0.87538,12.38306 -0.27949,16.54024 -0.49239,1.77246 -0.46482,1.78676 1.26382,0.65503 0.97197,-0.63634 3.91393,-3.69782 6.5377,-6.8033 z m 64.94499,-28.75197 c -3.14482,-1.26887 -2.93405,-3.68567 0.44344,-5.08467 2.5996,-1.07679 3.01724,-2.81523 3.5847,-14.92155 0.34798,-7.42386 0.66266,-9.45518 1.46477,-9.45518 1.3685,0 3.28071,5.83987 4.85219,14.81855 1.0574,6.04141 1.12761,7.82681 0.40292,10.24561 -1.29937,4.3369 -6.06514,6.28667 -10.74802,4.39724 z m 30.01262,-14.73313 c -2.20886,-4.86059 -4.81262,-11.97449 -4.81262,-13.14886 0,-2.28591 1.31515,-1.21689 3.64933,2.96635 3.30238,5.91844 4.89114,7.45505 7.70802,7.45505 1.30675,0 2.61132,0.38091 2.89905,0.84646 0.85677,1.38627 -3.11548,4.24479 -5.89863,4.24479 -2.0825,0 -2.63982,-0.3716 -3.54515,-2.36379 z m -247.2745,-34.00229 c 0.97771,-8.93541 1.29296,-8.29843 -4.38458,-8.85952 -5.57863,-0.55132 -11.21735,-2.17846 -14.83564,-4.28109 l -2.39191,-1.38994 -2.59457,2.35585 c -1.42702,1.29572 -3.526046,4.15598 -4.664501,6.35612 -2.292147,4.42973 -2.74041,4.07005 -1.019087,-0.8177 1.425027,-4.04644 4.582538,-8.63748 5.940458,-8.63748 0.79122,0 0.67893,-0.4652 -0.46258,-1.91639 -3.040281,-3.86509 -1.41372,-11.21879 4.32706,-19.56272 l 2.25869,-3.2829 -4.59208,-2.08138 c -2.52564,-1.14476 -5.246671,-2.3335 -6.046724,-2.64164 -1.240011,-0.47761 -1.275817,-0.60346 -0.242715,-0.85298 0.666569,-0.16099 3.723979,0.57433 6.794259,1.63405 l 5.58232,1.92676 1.13974,-1.62721 c 2.29021,-3.26973 11.0964,-12.88379 13.42538,-14.65701 1.31663,-1.00245 3.7405,-2.50846 5.38636,-3.34668 2.55618,-1.30184 3.06014,-1.94717 3.45655,-4.42618 0.57306,-3.583687 1.81741,-6.964337 2.36273,-6.419017 0.22376,0.22377 0.0282,2.23074 -0.43457,4.459937 -1.19951,5.778 -0.64845,6.9721 3.21753,6.9721 6.69671,0 15.16019,5.03386 19.50643,11.60191 l 2.33196,3.52407 3.53894,-1.79332 c 1.94642,-0.98632 3.75188,-1.56285 4.01212,-1.28118 0.26025,0.28168 0.0236,0.67173 -0.52588,0.8668 -0.54947,0.19506 -2.01147,1.25926 -3.24888,2.36489 l -2.24982,2.01022 2.11375,4.26326 c 1.43293,2.8901 2.21435,5.7355 2.42605,8.8341 0.29268,4.2836 0.14638,4.82074 -2.32813,8.54761 -2.54325,3.83042 -7.09246,7.81118 -9.97049,8.72464 -1.68251,0.534 -1.77295,2.68261 -0.28986,6.88613 1.85449,5.25618 1.18916,6.52444 -0.93683,1.7858 -3.27599,-7.30189 -2.90582,-7.00184 -7.08057,-5.73931 -1.99086,0.60207 -6.37392,1.32879 -9.74012,1.61494 l -6.12037,0.52026 -2.04907,6.18224 c -2.04568,6.17204 -2.04834,6.17564 -1.61135,2.18196 z m 17.3162,-13.48201 c 11.12045,-3.04496 18.58631,-9.56611 18.58631,-16.23449 0,-2.72827 -4.27972,-11.06747 -8.32494,-16.22151 -4.93347,-6.28575 -10.41935,-9.27571 -21.70683,-11.83088 -1.18395,-0.26801 -1.82935,-0.78395 -1.5487,-1.23806 0.28726,-0.46479 -0.21372,-0.41201 -1.24307,0.13097 -2.90089,1.53019 -10.90136,10.11301 -16.80188,18.02488 -9.35399,12.54252 -11.41212,18.45311 -7.79481,22.38525 2.23493,2.42945 7.04289,4.64716 12.68994,5.85337 5.63216,1.20303 20.36429,0.71305 26.14398,-0.86952 z m -77.868,-24.77883 c -1.349517,-5.37693 2.634483,-19.91928 6.38251,-23.29737 l 1.503533,-1.35512 -1.260942,2.90928 c -2.90085,6.69293 -4.046208,11.64841 -4.068296,17.60181 -0.01746,4.7096 -0.248635,6.03615 -1.051831,6.03615 -0.566177,0 -1.243415,-0.85264 -1.504974,-1.89475 z m 158.27666,-12.61589 c 0,-1.18039 -0.33622,-3.71692 -0.74716,-5.63674 l -0.74715,-3.49058 -4.42323,0.25043 c -5.78748,0.32766 -10.04481,-1.30619 -13.29366,-5.10174 -3.08169,-3.60027 -4.18933,-3.38582 -8.75804,1.69568 -1.81808,2.02215 -3.3056,3.37801 -3.3056,3.01303 0,-1.51264 4.38603,-7.42509 6.38344,-8.60499 2.0588,-1.216157 2.17229,-1.549677 2.56437,-7.535917 0.52167,-7.96465 1.59017,-11.61245 3.64378,-12.43978 1.27978,-0.51557 1.33803,-0.65005 0.29763,-0.68713 -1.75327,-0.0625 -9.97993,-4.26406 -9.97993,-5.09702 0,-0.36632 2.53653,0.25812 5.63674,1.38765 l 5.63675,2.0537 1.37007,-1.82476 c 2.21134,-2.94524 7.26798,-4.76035 13.51317,-4.85063 l 5.48176,-0.0793 1.53514,-4.1551 c 1.59294,-4.31155 3.80416,-8.20376 4.35037,-7.65755 0.17291,0.1729 -0.31832,1.75595 -1.09162,3.51788 -0.77329,1.76194 -1.63127,4.42742 -1.90662,5.9233 -0.41743,2.26772 -0.27587,2.79452 0.85167,3.16949 4.11292,1.36778 9.35525,4.3884 12.3996,7.14463 l 3.4595,3.13208 3.55622,-2.44625 c 1.95592,-1.34543 4.09226,-2.42908 4.74741,-2.4081 0.88188,0.0282 0.72351,0.35876 -0.60991,1.27282 -0.99061,0.67906 -2.85681,2.15481 -4.14713,3.27943 -2.02415,1.76425 -2.25102,2.29461 -1.65366,3.86579 1.46919,3.86428 0.85171,6.67719 -2.1902,9.97728 l -2.88256,3.1272 1.84164,2.710217 c 2.05133,3.0188 3.57699,6.86555 2.96548,7.47706 -0.21937,0.21937 -1.20372,-1.18834 -2.18745,-3.12825 -0.98372,-1.9399 -2.44285,-4.11827 -3.24251,-4.84083 -1.41465,-1.27826 -1.68137,-1.1997 -9.87698,2.90928 l -8.42306,4.22303 0.4432,6.0004 c 0.31457,4.25876 0.20307,6.00041 -0.38413,6.00041 -0.45504,0 -0.82734,-0.96577 -0.82734,-2.14617 z m 0.65142,-13.93321 c 4.88505,-2.12125 15.59286,-8.397747 17.77182,-10.417137 3.03145,-2.80946 2.63575,-5.57726 -1.37009,-9.5831 -6.21773,-6.21773 -14.57891,-8.60296 -23.9551,-6.8338 -8.9033,1.67994 -12.73574,6.62265 -12.73574,16.42534 0,10.531957 9.17071,15.236697 20.28911,10.408697 z m -80.6164,-46.734227 c -0.0319,-1.64483 1.09172,-3.21439 5.34875,-7.47142 4.23372,-4.23371 6.68977,-5.99673 11.45532,-8.2229 17.36474,-8.11173 36.86366,-8.06711 56.55259,0.12941 4.82229,2.00753 11.53036,6.78532 10.69688,7.6188 -0.1726,0.1726 -4.02696,-1.33305 -8.56525,-3.34586 -4.53829,-2.01283 -11.85169,-4.52901 -16.25198,-5.59151 -7.20346,-1.73936 -8.94255,-1.89418 -17.45572,-1.55393 -18.19533,0.72724 -31.85988,6.96835 -40.14931,18.33769 l -1.59088,2.18197 z m 99.74661,-40.92172 c 0.61851,-0.61851 1.90285,-1.01449 2.8541,-0.87995 1.45646,0.206 1.2789,0.38356 -1.12456,1.12456 -2.57485,0.79385 -2.74407,0.76991 -1.72954,-0.24461 z"
     style="fill:#3c322c;fill-opacity:1;stroke-width:0.72732174" />
</svg>
